<?xml version="1.0" encoding="UTF-8" standalone="no"?>
<!-- Created with Inkscape (http://www.inkscape.org/) -->

<svg
   width="210mm"
   height="297mm"
   viewBox="0 0 210 297"
   version="1.1"
   id="svg5"
   inkscape:version="1.1 (c68e22c387, 2021-05-23)"
   sodipodi:docname="Fihla.svg"
   xmlns:inkscape="http://www.inkscape.org/namespaces/inkscape"
   xmlns:sodipodi="http://sodipodi.sourceforge.net/DTD/sodipodi-0.dtd"
   xmlns="http://www.w3.org/2000/svg"
   xmlns:svg="http://www.w3.org/2000/svg">
  <sodipodi:namedview
     id="namedview7"
     pagecolor="#505050"
     bordercolor="#ffffff"
     borderopacity="1"
     inkscape:pageshadow="0"
     inkscape:pageopacity="0"
     inkscape:pagecheckerboard="1"
     inkscape:document-units="mm"
     showgrid="false"
     inkscape:object-paths="true"
     inkscape:snap-intersection-paths="true"
     inkscape:snap-bbox="true"
     inkscape:snap-global="false"
     inkscape:zoom="0.38663019"
     inkscape:cx="201.74317"
     inkscape:cy="466.85439"
     inkscape:window-width="1366"
     inkscape:window-height="705"
     inkscape:window-x="-8"
     inkscape:window-y="-8"
     inkscape:window-maximized="1"
     inkscape:current-layer="layer1" />
  <defs
     id="defs2">
    <inkscape:path-effect
       effect="skeletal"
       id="path-effect23998"
       is_visible="true"
       lpeversion="1"
       pattern="m -5.333428,150.14663 c -0.477895,-1.75197 0.556141,-3.56172 2.308117,-4.03962 1.751975,-0.47789 3.561725,0.55614 4.03962,2.30812 0.477896,1.75198 -0.55614,3.56172 -2.308116,4.03962 -1.751975,0.4779 -3.561725,-0.55614 -4.039621,-2.30812 z"
       copytype="single_stretched"
       prop_scale="0.5"
       scale_y_rel="false"
       spacing="0"
       normal_offset="0"
       tang_offset="0"
       prop_units="false"
       vertical_pattern="false"
       hide_knot="false"
       fuse_tolerance="0" />
    <inkscape:path-effect
       effect="skeletal"
       id="path-effect23994"
       is_visible="true"
       lpeversion="1"
       pattern="m -5.333428,150.14663 c -0.477895,-1.75197 0.556141,-3.56172 2.308117,-4.03962 1.751975,-0.47789 3.561725,0.55614 4.03962,2.30812 0.477896,1.75198 -0.55614,3.56172 -2.308116,4.03962 -1.751975,0.4779 -3.561725,-0.55614 -4.039621,-2.30812 z"
       copytype="single_stretched"
       prop_scale="0.5"
       scale_y_rel="false"
       spacing="0"
       normal_offset="0"
       tang_offset="0"
       prop_units="false"
       vertical_pattern="false"
       hide_knot="false"
       fuse_tolerance="0" />
    <inkscape:path-effect
       effect="skeletal"
       id="path-effect23990"
       is_visible="true"
       lpeversion="1"
       pattern="m -5.333428,150.14663 c -0.477895,-1.75197 0.556141,-3.56172 2.308117,-4.03962 1.751975,-0.47789 3.561725,0.55614 4.03962,2.30812 0.477896,1.75198 -0.55614,3.56172 -2.308116,4.03962 -1.751975,0.4779 -3.561725,-0.55614 -4.039621,-2.30812 z"
       copytype="single_stretched"
       prop_scale="0.5"
       scale_y_rel="false"
       spacing="0"
       normal_offset="0"
       tang_offset="0"
       prop_units="false"
       vertical_pattern="false"
       hide_knot="false"
       fuse_tolerance="0" />
    <inkscape:path-effect
       effect="skeletal"
       id="path-effect23986"
       is_visible="true"
       lpeversion="1"
       pattern="m -5.333428,150.14663 c -0.477895,-1.75197 0.556141,-3.56172 2.308117,-4.03962 1.751975,-0.47789 3.561725,0.55614 4.03962,2.30812 0.477896,1.75198 -0.55614,3.56172 -2.308116,4.03962 -1.751975,0.4779 -3.561725,-0.55614 -4.039621,-2.30812 z"
       copytype="single_stretched"
       prop_scale="0.5"
       scale_y_rel="false"
       spacing="0"
       normal_offset="0"
       tang_offset="0"
       prop_units="false"
       vertical_pattern="false"
       hide_knot="false"
       fuse_tolerance="0" />
    <inkscape:path-effect
       effect="skeletal"
       id="path-effect23982"
       is_visible="true"
       lpeversion="1"
       pattern="m -5.333428,150.14663 c -0.477895,-1.75197 0.556141,-3.56172 2.308117,-4.03962 1.751975,-0.47789 3.561725,0.55614 4.03962,2.30812 0.477896,1.75198 -0.55614,3.56172 -2.308116,4.03962 -1.751975,0.4779 -3.561725,-0.55614 -4.039621,-2.30812 z"
       copytype="single_stretched"
       prop_scale="0.5"
       scale_y_rel="false"
       spacing="0"
       normal_offset="0"
       tang_offset="0"
       prop_units="false"
       vertical_pattern="false"
       hide_knot="false"
       fuse_tolerance="0" />
    <inkscape:path-effect
       effect="skeletal"
       id="path-effect23978"
       is_visible="true"
       lpeversion="1"
       pattern="m -5.333428,150.14663 c -0.477895,-1.75197 0.556141,-3.56172 2.308117,-4.03962 1.751975,-0.47789 3.561725,0.55614 4.03962,2.30812 0.477896,1.75198 -0.55614,3.56172 -2.308116,4.03962 -1.751975,0.4779 -3.561725,-0.55614 -4.039621,-2.30812 z"
       copytype="single_stretched"
       prop_scale="0.5"
       scale_y_rel="false"
       spacing="0"
       normal_offset="0"
       tang_offset="0"
       prop_units="false"
       vertical_pattern="false"
       hide_knot="false"
       fuse_tolerance="0" />
    <inkscape:path-effect
       effect="skeletal"
       id="path-effect23974"
       is_visible="true"
       lpeversion="1"
       pattern="m -5.333428,150.14663 c -0.477895,-1.75197 0.556141,-3.56172 2.308117,-4.03962 1.751975,-0.47789 3.561725,0.55614 4.03962,2.30812 0.477896,1.75198 -0.55614,3.56172 -2.308116,4.03962 -1.751975,0.4779 -3.561725,-0.55614 -4.039621,-2.30812 z"
       copytype="single_stretched"
       prop_scale="0.5"
       scale_y_rel="false"
       spacing="0"
       normal_offset="0"
       tang_offset="0"
       prop_units="false"
       vertical_pattern="false"
       hide_knot="false"
       fuse_tolerance="0" />
    <inkscape:path-effect
       effect="skeletal"
       id="path-effect23970"
       is_visible="true"
       lpeversion="1"
       pattern="m -5.333428,150.14663 c -0.477895,-1.75197 0.556141,-3.56172 2.308117,-4.03962 1.751975,-0.47789 3.561725,0.55614 4.03962,2.30812 0.477896,1.75198 -0.55614,3.56172 -2.308116,4.03962 -1.751975,0.4779 -3.561725,-0.55614 -4.039621,-2.30812 z"
       copytype="single_stretched"
       prop_scale="0.5"
       scale_y_rel="false"
       spacing="0"
       normal_offset="0"
       tang_offset="0"
       prop_units="false"
       vertical_pattern="false"
       hide_knot="false"
       fuse_tolerance="0" />
    <inkscape:path-effect
       effect="skeletal"
       id="path-effect23966"
       is_visible="true"
       lpeversion="1"
       pattern="m -5.333428,150.14663 c -0.477895,-1.75197 0.556141,-3.56172 2.308117,-4.03962 1.751975,-0.47789 3.561725,0.55614 4.03962,2.30812 0.477896,1.75198 -0.55614,3.56172 -2.308116,4.03962 -1.751975,0.4779 -3.561725,-0.55614 -4.039621,-2.30812 z"
       copytype="single_stretched"
       prop_scale="0.5"
       scale_y_rel="false"
       spacing="0"
       normal_offset="0"
       tang_offset="0"
       prop_units="false"
       vertical_pattern="false"
       hide_knot="false"
       fuse_tolerance="0" />
    <inkscape:path-effect
       effect="skeletal"
       id="path-effect23962"
       is_visible="true"
       lpeversion="1"
       pattern="m -5.333428,150.14663 c -0.477895,-1.75197 0.556141,-3.56172 2.308117,-4.03962 1.751975,-0.47789 3.561725,0.55614 4.03962,2.30812 0.477896,1.75198 -0.55614,3.56172 -2.308116,4.03962 -1.751975,0.4779 -3.561725,-0.55614 -4.039621,-2.30812 z"
       copytype="single_stretched"
       prop_scale="0.5"
       scale_y_rel="false"
       spacing="0"
       normal_offset="0"
       tang_offset="0"
       prop_units="false"
       vertical_pattern="false"
       hide_knot="false"
       fuse_tolerance="0" />
    <inkscape:path-effect
       effect="skeletal"
       id="path-effect23958"
       is_visible="true"
       lpeversion="1"
       pattern="m -5.333428,150.14663 c -0.477895,-1.75197 0.556141,-3.56172 2.308117,-4.03962 1.751975,-0.47789 3.561725,0.55614 4.03962,2.30812 0.477896,1.75198 -0.55614,3.56172 -2.308116,4.03962 -1.751975,0.4779 -3.561725,-0.55614 -4.039621,-2.30812 z"
       copytype="single_stretched"
       prop_scale="0.5"
       scale_y_rel="false"
       spacing="0"
       normal_offset="0"
       tang_offset="0"
       prop_units="false"
       vertical_pattern="false"
       hide_knot="false"
       fuse_tolerance="0" />
    <inkscape:path-effect
       effect="skeletal"
       id="path-effect23954"
       is_visible="true"
       lpeversion="1"
       pattern="m -5.333428,150.14663 c -0.477895,-1.75197 0.556141,-3.56172 2.308117,-4.03962 1.751975,-0.47789 3.561725,0.55614 4.03962,2.30812 0.477896,1.75198 -0.55614,3.56172 -2.308116,4.03962 -1.751975,0.4779 -3.561725,-0.55614 -4.039621,-2.30812 z"
       copytype="single_stretched"
       prop_scale="0.5"
       scale_y_rel="false"
       spacing="0"
       normal_offset="0"
       tang_offset="0"
       prop_units="false"
       vertical_pattern="false"
       hide_knot="false"
       fuse_tolerance="0" />
    <inkscape:path-effect
       effect="skeletal"
       id="path-effect23950"
       is_visible="true"
       lpeversion="1"
       pattern="m -5.333428,150.14663 c -0.477895,-1.75197 0.556141,-3.56172 2.308117,-4.03962 1.751975,-0.47789 3.561725,0.55614 4.03962,2.30812 0.477896,1.75198 -0.55614,3.56172 -2.308116,4.03962 -1.751975,0.4779 -3.561725,-0.55614 -4.039621,-2.30812 z"
       copytype="single_stretched"
       prop_scale="0.5"
       scale_y_rel="false"
       spacing="0"
       normal_offset="0"
       tang_offset="0"
       prop_units="false"
       vertical_pattern="false"
       hide_knot="false"
       fuse_tolerance="0" />
    <inkscape:path-effect
       effect="skeletal"
       id="path-effect23946"
       is_visible="true"
       lpeversion="1"
       pattern="m -5.333428,150.14663 c -0.477895,-1.75197 0.556141,-3.56172 2.308117,-4.03962 1.751975,-0.47789 3.561725,0.55614 4.03962,2.30812 0.477896,1.75198 -0.55614,3.56172 -2.308116,4.03962 -1.751975,0.4779 -3.561725,-0.55614 -4.039621,-2.30812 z"
       copytype="single_stretched"
       prop_scale="0.5"
       scale_y_rel="false"
       spacing="0"
       normal_offset="0"
       tang_offset="0"
       prop_units="false"
       vertical_pattern="false"
       hide_knot="false"
       fuse_tolerance="0" />
    <inkscape:path-effect
       effect="skeletal"
       id="path-effect23942"
       is_visible="true"
       lpeversion="1"
       pattern="m -5.333428,150.14663 c -0.477895,-1.75197 0.556141,-3.56172 2.308117,-4.03962 1.751975,-0.47789 3.561725,0.55614 4.03962,2.30812 0.477896,1.75198 -0.55614,3.56172 -2.308116,4.03962 -1.751975,0.4779 -3.561725,-0.55614 -4.039621,-2.30812 z"
       copytype="single_stretched"
       prop_scale="0.5"
       scale_y_rel="false"
       spacing="0"
       normal_offset="0"
       tang_offset="0"
       prop_units="false"
       vertical_pattern="false"
       hide_knot="false"
       fuse_tolerance="0" />
    <inkscape:path-effect
       effect="skeletal"
       id="path-effect5671"
       is_visible="true"
       lpeversion="1"
       pattern="m 41.426195,50.133154 c -0.0082,-1.815966 1.459033,-3.296422 3.275001,-3.30459 1.815966,-0.0082 3.296422,1.459034 3.304588,3.275001 0.0082,1.815967 -1.459032,3.296422 -3.274999,3.304589 -1.815967,0.0082 -3.296423,-1.459033 -3.30459,-3.275 z"
       copytype="single_stretched"
       prop_scale="0.5"
       scale_y_rel="false"
       spacing="0"
       normal_offset="0"
       tang_offset="0"
       prop_units="false"
       vertical_pattern="false"
       hide_knot="false"
       fuse_tolerance="0" />
    <inkscape:path-effect
       effect="skeletal"
       id="path-effect4969"
       is_visible="true"
       lpeversion="1"
       pattern="m 41.426195,50.133154 c -0.0082,-1.815966 1.459033,-3.296422 3.275001,-3.30459 1.815966,-0.0082 3.296422,1.459034 3.304588,3.275001 0.0082,1.815967 -1.459032,3.296422 -3.274999,3.304589 -1.815967,0.0082 -3.296423,-1.459033 -3.30459,-3.275 z"
       copytype="single_stretched"
       prop_scale="0.5"
       scale_y_rel="false"
       spacing="0"
       normal_offset="0"
       tang_offset="0"
       prop_units="false"
       vertical_pattern="false"
       hide_knot="false"
       fuse_tolerance="0" />
    <inkscape:path-effect
       effect="skeletal"
       id="path-effect4837"
       is_visible="true"
       lpeversion="1"
       pattern="m 41.426195,50.133154 c -0.0082,-1.815966 1.459033,-3.296422 3.275001,-3.30459 1.815966,-0.0082 3.296422,1.459034 3.304588,3.275001 0.0082,1.815967 -1.459032,3.296422 -3.274999,3.304589 -1.815967,0.0082 -3.296423,-1.459033 -3.30459,-3.275 z"
       copytype="single_stretched"
       prop_scale="0.5"
       scale_y_rel="false"
       spacing="0"
       normal_offset="0"
       tang_offset="0"
       prop_units="false"
       vertical_pattern="false"
       hide_knot="false"
       fuse_tolerance="0" />
    <inkscape:path-effect
       effect="skeletal"
       id="path-effect4439"
       is_visible="true"
       lpeversion="1"
       pattern="m 41.426195,50.133154 c -0.0082,-1.815966 1.459033,-3.296422 3.275001,-3.30459 1.815966,-0.0082 3.296422,1.459034 3.304588,3.275001 0.0082,1.815967 -1.459032,3.296422 -3.274999,3.304589 -1.815967,0.0082 -3.296423,-1.459033 -3.30459,-3.275 z"
       copytype="single_stretched"
       prop_scale="0.5"
       scale_y_rel="false"
       spacing="0"
       normal_offset="0"
       tang_offset="0"
       prop_units="false"
       vertical_pattern="false"
       hide_knot="false"
       fuse_tolerance="0" />
    <inkscape:path-effect
       effect="skeletal"
       id="path-effect4060"
       is_visible="true"
       lpeversion="1"
       pattern="m 41.426195,50.133154 c -0.0082,-1.815966 1.459033,-3.296422 3.275001,-3.30459 1.815966,-0.0082 3.296422,1.459034 3.304588,3.275001 0.0082,1.815967 -1.459032,3.296422 -3.274999,3.304589 -1.815967,0.0082 -3.296423,-1.459033 -3.30459,-3.275 z"
       copytype="single_stretched"
       prop_scale="0.5"
       scale_y_rel="false"
       spacing="0"
       normal_offset="0"
       tang_offset="0"
       prop_units="false"
       vertical_pattern="false"
       hide_knot="false"
       fuse_tolerance="0" />
    <inkscape:path-effect
       effect="skeletal"
       id="path-effect3928"
       is_visible="true"
       lpeversion="1"
       pattern="m 41.426195,50.133154 c -0.0082,-1.815966 1.459033,-3.296422 3.275001,-3.30459 1.815966,-0.0082 3.296422,1.459034 3.304588,3.275001 0.0082,1.815967 -1.459032,3.296422 -3.274999,3.304589 -1.815967,0.0082 -3.296423,-1.459033 -3.30459,-3.275 z"
       copytype="single_stretched"
       prop_scale="0.5"
       scale_y_rel="false"
       spacing="0"
       normal_offset="0"
       tang_offset="0"
       prop_units="false"
       vertical_pattern="false"
       hide_knot="false"
       fuse_tolerance="0" />
    <inkscape:path-effect
       effect="skeletal"
       id="path-effect3530"
       is_visible="true"
       lpeversion="1"
       pattern="m 41.426195,50.133154 c -0.0082,-1.815966 1.459033,-3.296422 3.275001,-3.30459 1.815966,-0.0082 3.296422,1.459034 3.304588,3.275001 0.0082,1.815967 -1.459032,3.296422 -3.274999,3.304589 -1.815967,0.0082 -3.296423,-1.459033 -3.30459,-3.275 z"
       copytype="single_stretched"
       prop_scale="0.5"
       scale_y_rel="false"
       spacing="0"
       normal_offset="0"
       tang_offset="0"
       prop_units="false"
       vertical_pattern="false"
       hide_knot="false"
       fuse_tolerance="0" />
    <inkscape:path-effect
       effect="skeletal"
       id="path-effect3246"
       is_visible="true"
       lpeversion="1"
       pattern="m 41.426195,50.133154 c -0.0082,-1.815966 1.459033,-3.296422 3.275001,-3.30459 1.815966,-0.0082 3.296422,1.459034 3.304588,3.275001 0.0082,1.815967 -1.459032,3.296422 -3.274999,3.304589 -1.815967,0.0082 -3.296423,-1.459033 -3.30459,-3.275 z"
       copytype="single_stretched"
       prop_scale="0.5"
       scale_y_rel="false"
       spacing="0"
       normal_offset="0"
       tang_offset="0"
       prop_units="false"
       vertical_pattern="false"
       hide_knot="false"
       fuse_tolerance="0" />
    <inkscape:path-effect
       effect="skeletal"
       id="path-effect3152"
       is_visible="true"
       lpeversion="1"
       pattern="m 41.426195,50.133154 c -0.0082,-1.815966 1.459033,-3.296422 3.275001,-3.30459 1.815966,-0.0082 3.296422,1.459034 3.304588,3.275001 0.0082,1.815967 -1.459032,3.296422 -3.274999,3.304589 -1.815967,0.0082 -3.296423,-1.459033 -3.30459,-3.275 z"
       copytype="single_stretched"
       prop_scale="0.5"
       scale_y_rel="false"
       spacing="0"
       normal_offset="0"
       tang_offset="0"
       prop_units="false"
       vertical_pattern="false"
       hide_knot="false"
       fuse_tolerance="0" />
    <inkscape:path-effect
       effect="skeletal"
       id="path-effect2868"
       is_visible="true"
       lpeversion="1"
       pattern="m 41.426195,50.133154 c -0.0082,-1.815966 1.459033,-3.296422 3.275001,-3.30459 1.815966,-0.0082 3.296422,1.459034 3.304588,3.275001 0.0082,1.815967 -1.459032,3.296422 -3.274999,3.304589 -1.815967,0.0082 -3.296423,-1.459033 -3.30459,-3.275 z"
       copytype="single_stretched"
       prop_scale="0.5"
       scale_y_rel="false"
       spacing="0"
       normal_offset="0"
       tang_offset="0"
       prop_units="false"
       vertical_pattern="false"
       hide_knot="false"
       fuse_tolerance="0" />
    <inkscape:path-effect
       effect="skeletal"
       id="path-effect2774"
       is_visible="true"
       lpeversion="1"
       pattern="m 41.426195,50.133154 c -0.0082,-1.815966 1.459033,-3.296422 3.275001,-3.30459 1.815966,-0.0082 3.296422,1.459034 3.304588,3.275001 0.0082,1.815967 -1.459032,3.296422 -3.274999,3.304589 -1.815967,0.0082 -3.296423,-1.459033 -3.30459,-3.275 z"
       copytype="single_stretched"
       prop_scale="0.5"
       scale_y_rel="false"
       spacing="0"
       normal_offset="0"
       tang_offset="0"
       prop_units="false"
       vertical_pattern="false"
       hide_knot="false"
       fuse_tolerance="0" />
    <inkscape:path-effect
       effect="skeletal"
       id="path-effect2680"
       is_visible="true"
       lpeversion="1"
       pattern="m 41.426195,50.133154 c -0.0082,-1.815966 1.459033,-3.296422 3.275001,-3.30459 1.815966,-0.0082 3.296422,1.459034 3.304588,3.275001 0.0082,1.815967 -1.459032,3.296422 -3.274999,3.304589 -1.815967,0.0082 -3.296423,-1.459033 -3.30459,-3.275 z"
       copytype="single_stretched"
       prop_scale="0.5"
       scale_y_rel="false"
       spacing="0"
       normal_offset="0"
       tang_offset="0"
       prop_units="false"
       vertical_pattern="false"
       hide_knot="false"
       fuse_tolerance="0" />
    <inkscape:path-effect
       effect="skeletal"
       id="path-effect2472"
       is_visible="true"
       lpeversion="1"
       pattern="m 41.426195,50.133154 c -0.0082,-1.815966 1.459033,-3.296422 3.275001,-3.30459 1.815966,-0.0082 3.296422,1.459034 3.304588,3.275001 0.0082,1.815967 -1.459032,3.296422 -3.274999,3.304589 -1.815967,0.0082 -3.296423,-1.459033 -3.30459,-3.275 z"
       copytype="single_stretched"
       prop_scale="0.5"
       scale_y_rel="false"
       spacing="0"
       normal_offset="0"
       tang_offset="0"
       prop_units="false"
       vertical_pattern="false"
       hide_knot="false"
       fuse_tolerance="0" />
    <inkscape:path-effect
       effect="skeletal"
       id="path-effect2060"
       is_visible="true"
       lpeversion="1"
       pattern="m 41.426195,50.133154 c -0.0082,-1.815966 1.459033,-3.296422 3.275001,-3.30459 1.815966,-0.0082 3.296422,1.459034 3.304588,3.275001 0.0082,1.815967 -1.459032,3.296422 -3.274999,3.304589 -1.815967,0.0082 -3.296423,-1.459033 -3.30459,-3.275 z"
       copytype="single_stretched"
       prop_scale="0.5"
       scale_y_rel="false"
       spacing="0"
       normal_offset="0"
       tang_offset="0"
       prop_units="false"
       vertical_pattern="false"
       hide_knot="false"
       fuse_tolerance="0" />
    <inkscape:path-effect
       effect="skeletal"
       id="path-effect1753"
       is_visible="true"
       lpeversion="1"
       pattern="m 41.426195,50.133154 c -0.0082,-1.815966 1.459033,-3.296422 3.275001,-3.30459 1.815966,-0.0082 3.296422,1.459034 3.304588,3.275001 0.0082,1.815967 -1.459032,3.296422 -3.274999,3.304589 -1.815967,0.0082 -3.296423,-1.459033 -3.30459,-3.275 z"
       copytype="single_stretched"
       prop_scale="0.5"
       scale_y_rel="false"
       spacing="0"
       normal_offset="0"
       tang_offset="0"
       prop_units="false"
       vertical_pattern="false"
       hide_knot="false"
       fuse_tolerance="0" />
    <inkscape:path-effect
       effect="skeletal"
       id="path-effect1393"
       is_visible="true"
       lpeversion="1"
       pattern="M 0,4.9921382 C 0,2.2364779 2.2364779,0 4.9921382,0 c 2.7556604,0 4.9921383,2.2364779 4.9921383,4.9921382 0,2.7556604 -2.2364779,4.9921383 -4.9921383,4.9921383 C 2.2364779,9.9842765 0,7.7477986 0,4.9921382 Z"
       copytype="single_stretched"
       prop_scale="0.5"
       scale_y_rel="false"
       spacing="0"
       normal_offset="0"
       tang_offset="0"
       prop_units="false"
       vertical_pattern="false"
       hide_knot="false"
       fuse_tolerance="0" />
  </defs>
  <g
     inkscape:label="Layer 1"
     inkscape:groupmode="layer"
     id="layer1">
    <path
       style="fill:#000000;stroke:none;stroke-width:0.174361px;stroke-linecap:butt;stroke-linejoin:miter;stroke-opacity:1"
       d="m 54.740643,151.75499 c -0.288046,-0.35197 1.424074,-2.13257 4.530427,-4.64054 3.04114,-2.45531 7.68892,-5.78862 13.136255,-8.5512 0.297957,-0.15111 0.595677,-0.29922 0.893168,-0.44432 0,0 2e-6,0 2e-6,0 5.548812,-2.71714 10.541162,-4.01111 14.607886,-4.388 3.891697,-0.36066 6.295822,0.14148 6.32268,0.58318 0.02712,0.44419 -2.287374,0.74345 -5.872499,1.64765 -3.861005,0.97378 -8.181955,2.44378 -13.611022,5.10878 -0.227162,0.11196 -0.454856,0.22527 -0.683171,0.33996 -5.064154,2.54394 -10.138981,5.66018 -13.356149,7.54105 -3.437646,2.00976 -5.679619,3.15548 -5.967577,2.80344 z"
       id="path1751"
       inkscape:path-effect="#path-effect1753"
       inkscape:original-d="m 54.736126,151.74913 c 12.713909,-9.18586 25.555417,-17.41665 39.495165,-17.42762"
       sodipodi:nodetypes="cc" />
    <path
       style="fill:#000000;stroke:none;stroke-width:0.174361px;stroke-linecap:butt;stroke-linejoin:miter;stroke-opacity:1"
       d="m 94.232334,134.35284 c -0.196255,0.17865 -2.472827,-2.56416 -4.07945,-8.64458 -0.528636,-1.99608 -0.92914,-4.5468 -0.600467,-7.2877 0.23712,-1.93359 0.868194,-3.98029 2.003002,-5.92036 0.992508,-1.68833 2.307296,-3.24216 3.881108,-4.65293 3.004685,-2.68885 6.455563,-4.64455 10.417243,-6.69774 3.18311,-1.650034 6.95015,-3.371388 9.92383,-5.56779 5.79552,-0.472726 12.01654,0.100353 18.17022,1.996921 5.35119,1.738253 10.55064,4.483849 15.27216,8.165729 2.87863,2.24243 5.57091,4.81652 8.00028,7.68691 5.14066,6.07387 8.74481,13.04268 10.66413,20.22395 1.49405,5.59245 1.90504,11.2334 1.28418,16.57264 -0.70365,6.01453 -2.74206,11.51407 -5.52342,16.09623 -3.72413,6.1186 -8.70227,10.63611 -13.26627,13.78149 0,0 -1e-5,0 -1e-5,0 -12.29185,8.46991 -21.68234,9.57638 -21.9041,9.21635 -0.22508,-0.36457 9.01563,-2.23082 20.64778,-10.96398 0,0 0,0 0,0 4.25123,-3.1915 8.8588,-7.63283 12.18249,-13.41921 2.49069,-4.32327 4.28488,-9.45873 4.85476,-15.04131 0.50916,-4.95002 0.0609,-10.19315 -1.36954,-15.40465 -1.76819,-6.44486 -4.99465,-12.7293 -9.54227,-18.28416 -2.42155,-2.95788 -5.13274,-5.60345 -8.04189,-7.89043 -4.41517,-3.46707 -9.26428,-6.07748 -14.24524,-7.74829 -5.43685,-1.927637 -10.99987,-2.63989 -16.22436,-2.368486 -3.10828,2.278686 -6.73373,3.878566 -9.67815,5.328836 -3.97425,1.96208 -7.270025,3.67223 -10.100455,6.06414 -1.468842,1.23868 -2.690415,2.56347 -3.608579,4.00195 -1.050172,1.6357 -1.687134,3.40061 -1.980558,5.09016 -0.424293,2.40229 -0.191109,4.7921 0.167105,6.70828 1.078584,5.74675 2.88883,8.78328 2.696471,8.95803 z"
       id="path2058"
       inkscape:path-effect="#path-effect2060"
       inkscape:original-d="m 94.226231,134.35714 c -13.569099,-26.17167 11.481439,-29.70326 22.030819,-37.465542 48.20482,-3.25504 81.27101,71.600342 12.21462,92.423572"
       sodipodi:nodetypes="ccc" />
    <path
       style="fill:#000000;stroke:none;stroke-width:0.174361px;stroke-linecap:butt;stroke-linejoin:miter;stroke-opacity:1"
       d="m 130.04808,188.64229 c 0.47978,0.24167 -1.45785,5.5638 -7.81901,11.44175 0,0 0,0 0,0 -2.29977,2.1268 -5.37784,4.27483 -9.16675,5.49967 -2.83585,0.90447 -5.99606,1.22947 -9.22357,0.81032 -0.75434,-0.0993 -1.50606,-0.23544 -2.25384,-0.40662 -2.240912,-0.51297 -4.344991,-1.31715 -6.26688,-2.27596 0,0 -2e-6,0 -2e-6,0 -5.863785,-2.92848 -10.356856,-7.19444 -13.42177,-10.6626 -4.92964,-5.55346 -6.918163,-9.80273 -6.529707,-10.10294 0.394228,-0.30491 3.100818,3.39585 8.314135,8.38638 3.216676,3.06372 7.69378,6.93262 13.054444,9.46737 10e-7,0 2e-6,0 3e-6,0 1.67032,0.7906 3.452477,1.46716 5.301717,1.91743 0.74591,0.18162 1.4906,0.32348 2.23315,0.42264 2.7483,0.37274 5.45263,0.15239 7.88407,-0.54415 3.26263,-0.91876 6.1204,-2.71163 8.37325,-4.49372 0,0 1e-5,0 1e-5,0 6.21188,-4.92056 9.04584,-9.69901 9.52075,-9.45957 z"
       id="path2470"
       inkscape:path-effect="#path-effect2472"
       inkscape:original-d="m 130.05453,188.64592 c -22.73659,36.13104 -49.77729,2.06272 -54.681917,-5.70426"
       sodipodi:nodetypes="cc" />
    <path
       style="fill:#000000;stroke:none;stroke-width:0.174361px;stroke-linecap:butt;stroke-linejoin:miter;stroke-opacity:1"
       d="m 55.614587,148.13875 c 0.444054,-0.0957 1.036797,1.16776 1.976821,3.06711 0.943384,1.90613 2.259645,4.42467 4.302739,6.71893 0.246577,0.27688 0.497344,0.54337 0.752356,0.79997 0,0 0,0 0,0 1.980043,2.04606 4.168013,3.64279 5.66082,4.9877 1.503131,1.3542 2.296933,2.36358 2.057878,2.72989 -0.227528,0.34876 -1.444546,0.002 -3.259526,-0.85543 -1.703868,-0.80455 -4.429287,-2.30064 -6.765288,-4.53637 0,0 -10e-7,0 -10e-7,0 -0.282354,-0.27656 -0.557635,-0.56529 -0.825017,-0.86599 -2.460646,-2.76729 -3.653275,-5.8577 -4.111489,-8.17182 -0.459465,-2.32044 -0.202932,-3.78492 0.210707,-3.87399 z"
       id="path2678"
       inkscape:path-effect="#path-effect2680"
       inkscape:original-d="m 55.621844,148.13731 c 2.0109,11.13068 8.733612,14.09986 14.739214,18.31117"
       sodipodi:nodetypes="cc" />
    <path
       style="fill:#000000;stroke:none;stroke-width:0.174361px;stroke-linecap:butt;stroke-linejoin:miter;stroke-opacity:1"
       d="m 70.396998,166.22251 c 0.368463,0.22938 -0.347315,1.80436 -1.155355,4.36566 -0.813532,2.57871 -1.651288,6.13933 -1.329464,10.20038 0,0 0,0 0,0 0.027,0.38353 0.06268,0.76958 0.107112,1.15852 0.487827,4.2703 1.974107,8.19104 3.059269,10.95352 1.103894,2.81016 1.830955,4.61605 1.458975,4.87716 -0.371933,0.26118 -1.792082,-1.06698 -3.490051,-3.71451 -1.69797,-2.64753 -3.647132,-6.68455 -4.265235,-11.57483 -0.06248,-0.49429 -0.10988,-0.98667 -0.142341,-1.47674 0,0 0,-1e-5 0,-1e-5 -0.277883,-4.73225 1.078225,-8.69192 2.530608,-11.27459 1.442939,-2.56586 2.860195,-3.74268 3.226482,-3.51456 z"
       id="path2772"
       inkscape:path-effect="#path-effect2774"
       inkscape:original-d="m 70.40319,166.22656 c -6.228029,9.04294 -5.487071,19.56809 2.128193,31.5553"
       sodipodi:nodetypes="cc" />
    <path
       style="fill:#000000;stroke:none;stroke-width:0.174361px;stroke-linecap:butt;stroke-linejoin:miter;stroke-opacity:1"
       d="m 72.578813,197.74549 c -0.438938,0.042 -0.94799,-0.85163 -1.376022,-2.38453 -0.417502,-1.49519 -0.799013,-3.80043 -0.57172,-6.28612 0.225904,-2.47058 0.997514,-4.49017 2.030962,-5.9239 0,0 0,0 0,0 0.268948,-0.40177 0.645418,-0.7797 1.089463,-1.05754 0.219739,-0.23622 0.757197,-0.32135 1.306231,-0.22591 0.602597,0.301 0.734262,0.71471 0.683088,1.02578 -0.163837,0.84076 -0.615885,0.79272 -0.808167,0.68091 -0.196821,-0.11441 -0.207398,-0.57232 -0.455733,-0.56054 0,0 0,0 0,0 -0.07623,0.0777 -0.07953,0.18265 0.222381,0.41183 0.198297,0.0179 0.408134,0.12281 0.296339,0.15269 -10e-7,0 0,0 0,0 -0.05986,0.14254 -0.08479,0.36592 -0.19292,0.68613 0,0 0,1e-5 0,1e-5 -0.446826,1.44021 -0.732684,2.83003 -0.884647,5.00529 -0.150085,2.14849 -0.16113,4.28193 -0.353258,5.85822 -0.193263,1.58559 -0.530516,2.5741 -0.985997,2.61768 z"
       id="path2866"
       inkscape:path-effect="#path-effect2868"
       inkscape:original-d="m 72.571441,197.74611 c -1.204327,-16.64216 3.51519,-16.06858 2.354857,-14.17572"
       sodipodi:nodetypes="cc" />
    <path
       style="fill:#000000;stroke:none;stroke-width:0.174361px;stroke-linecap:butt;stroke-linejoin:miter;stroke-opacity:1"
       d="m 119.69107,152.9994 c 0.89116,0.17804 -0.0424,6.79232 -0.29283,15.04759 -0.2504,8.25526 -0.0922,15.12156 -0.99134,15.25361 -0.81788,0.12025 -2.56398,-6.56585 -2.30296,-15.21774 0.26166,-8.67406 2.63299,-15.27425 3.58713,-15.08346 z"
       id="path3150"
       inkscape:path-effect="#path-effect3152"
       inkscape:original-d="m 119.69829,153.001 c -2.22507,9.13219 -2.38164,19.94476 -1.29873,30.30052"
       sodipodi:nodetypes="cc" />
    <path
       style="fill:#000000;stroke:none;stroke-width:0.174361px;stroke-linecap:butt;stroke-linejoin:miter;stroke-opacity:1"
       d="m 116.94018,179.3255 c 0.81236,-0.46534 2.90424,2.40501 5.94736,5.13383 0,0 0,0 0,0 0.10321,0.0912 0.20773,0.18249 0.31349,0.27361 1.70821,1.47176 3.11129,2.37621 4.44532,3.1359 1.22019,0.69486 2.13058,1.13018 2.10212,1.59264 -0.0265,0.43057 -1.03177,0.84383 -2.74447,0.62933 -1.73312,-0.21706 -3.91114,-1.07123 -5.91103,-2.82178 -0.1487,-0.13016 -0.29312,-0.26245 -0.4332,-0.39649 0,0 0,0 0,0 -3.61378,-3.41927 -4.3766,-7.17076 -3.71959,-7.54704 z"
       id="path3244"
       inkscape:path-effect="#path-effect3246"
       inkscape:original-d="m 116.94664,179.3219 c 2.12826,3.92506 6.47669,9.61003 12.80129,10.14696"
       sodipodi:nodetypes="cc" />
    <path
       style="fill:#000000;stroke:none;stroke-width:0.174361px;stroke-linecap:butt;stroke-linejoin:miter;stroke-opacity:1"
       d="m 116.44009,136.11118 c -0.40236,0.21203 -1.84508,-1.79272 -3.56832,-5.4434 -1.68386,-3.56726 -3.72773,-9.07031 -4.06436,-15.26645 -0.0866,-1.59309 -0.0567,-3.1506 0.0868,-4.66989 0.34531,-3.62713 1.53027,-6.70987 3.23648,-9.0533 3.34457,-4.520329 7.22699,-5.114902 7.47211,-4.648803 0.24771,0.470757 -3.00771,2.00052 -5.29862,6.074923 -1.20735,2.09793 -1.95959,4.71107 -2.19813,7.90226 -0.0993,1.30858 -0.11628,2.64967 -0.0502,4.03487 0.26457,5.54267 1.87203,10.99911 2.95887,14.65673 1.12751,3.7945 1.82774,6.20113 1.42534,6.41306 z"
       id="path3528"
       inkscape:path-effect="#path-effect3530"
       inkscape:original-d="m 116.43344,136.11444 c -9.12589,-20.15542 -7.75378,-34.13965 3.17261,-39.078456"
       sodipodi:nodetypes="cc" />
    <path
       style="fill:#000000;stroke:none;stroke-width:0.174361px;stroke-linecap:butt;stroke-linejoin:miter;stroke-opacity:1"
       d="m 78.003073,160.78421 c -0.130657,-0.90004 9.154335,-2.14578 20.472924,-3.64996 0.311453,-0.0414 0.620843,-0.0828 0.928768,-0.12438 0,0 2e-6,0 2e-6,0 6.277553,-0.85974 9.513863,-1.34783 13.775893,-2.25354 3.46751,-0.73686 5.6244,-1.32869 5.82633,-0.93527 0.19345,0.37668 -1.64292,1.73302 -5.10143,3.0944 -3.69129,1.45302 -8.2035,2.53714 -14.05131,3.35067 -0.251695,0.0355 -0.504564,0.0702 -0.758609,0.10418 -11.533179,1.54185 -20.962119,1.31396 -21.092568,0.4139 z"
       id="path3926"
       inkscape:path-effect="#path-effect3928"
       inkscape:original-d="m 78.002215,160.77686 c 13.731156,-1.19622 30.272305,-2.19103 41.007965,-6.94912"
       sodipodi:nodetypes="cc" />
    <path
       style="fill:#000000;stroke:none;stroke-width:0.174361px;stroke-linecap:butt;stroke-linejoin:miter;stroke-opacity:1"
       d="m 91.867117,134.79042 c -0.153619,-0.73542 4.99171,-2.90764 12.088433,-2.58596 7.13008,0.32318 11.98907,3.33984 11.59726,4.26931 -0.1827,0.43357 -1.53791,0.19051 -3.58533,-0.1396 -2.2722,-0.36636 -4.636,-0.69709 -8.04791,-0.83691 -6.384249,-0.26162 -11.866813,0.18246 -12.052453,-0.70684 z"
       id="path4058"
       inkscape:path-effect="#path-effect4060"
       inkscape:original-d="m 91.865721,134.78315 c 8.392749,-1.46516 16.466479,-1.62949 23.684099,1.69739"
       sodipodi:nodetypes="cc" />
    <path
       style="fill:#000000;stroke:none;stroke-width:0.174361px;stroke-linecap:butt;stroke-linejoin:miter;stroke-opacity:1"
       d="m 80.26026,161.67602 c 0.04161,-0.45629 2.676978,-0.96102 6.102967,1.29195 1.496861,1.00138 2.918736,2.48708 4.049291,4.4602 0,0 10e-7,1e-5 10e-7,1e-5 1.421151,2.48747 2.332844,5.31117 2.928566,8.50152 0.220445,1.18057 0.385924,2.34479 0.52028,3.4545 0.250437,1.97639 0.428729,4.09099 0.578691,5.76437 0.172252,1.8679 0.27659,3.1698 0.54629,4.58853 0.306264,1.30203 0.41455,2.03226 0.917062,2.62377 0,0 0,0 0,0 0.193499,0.26232 0.444008,0.45594 0.687114,0.56623 0.660618,0.32189 1.31823,0.24328 1.398951,0.44898 0.08268,0.21057 -0.313651,0.78573 -1.60152,0.79532 -0.487406,-0.009 -1.072112,-0.16169 -1.611699,-0.55952 1e-6,0 0,0 0,0 -0.974707,-0.74927 -1.648914,-1.88591 -2.076116,-3.24339 -0.527539,-1.48586 -0.853436,-3.02131 -1.166771,-4.83492 -0.340849,-1.94979 -0.551037,-3.54006 -0.885294,-5.69774 -0.163142,-1.01607 -0.335203,-2.08724 -0.524844,-3.1307 -0.561032,-3.08695 -1.225272,-5.6132 -2.331537,-7.883 0,0 -10e-7,0 -10e-7,0 -0.83254,-1.71843 -1.787213,-3.02836 -2.854062,-4.01217 -2.338747,-2.20397 -4.718596,-2.68297 -4.677369,-3.13394 z"
       id="path4437"
       inkscape:path-effect="#path-effect4439"
       inkscape:original-d="m 80.261129,161.66867 c 17.413222,2.55842 8.659372,34.71371 17.730862,31.71437"
       sodipodi:nodetypes="cc" />
    <path
       style="fill:#000000;stroke:none;stroke-width:0.174361px;stroke-linecap:butt;stroke-linejoin:miter;stroke-opacity:1"
       d="m 78.500202,172.72864 c 0.425176,-0.20288 1.362153,1.1053 2.838795,3.08334 1.679281,2.24949 3.355891,4.39349 6.14443,7.47631 5.133128,5.67482 9.734878,10.28978 9.164467,10.99711 -0.5703,0.70742 -6.14312,-2.70755 -11.525981,-8.69852 -2.761692,-3.07367 -4.624743,-6.02395 -5.734332,-8.54505 -1.075474,-2.44358 -1.283289,-4.12435 -0.887379,-4.31319 z"
       id="path4835"
       inkscape:path-effect="#path-effect4837"
       inkscape:original-d="m 78.506939,172.72558 c 3.755092,8.73028 10.853202,15.21011 18.136202,21.56549"
       sodipodi:nodetypes="cc" />
    <path
       style="fill:#000000;stroke:none;stroke-width:0.174361px;stroke-linecap:butt;stroke-linejoin:miter;stroke-opacity:1"
       d="m 78.727559,172.94556 c 0.696091,0.51979 -0.880746,3.38907 -2.456919,6.8852 0,0 0,0 0,0 -0.06878,0.15933 -0.1383,0.32099 -0.207566,0.48323 -0.888,2.08 -1.33453,3.34225 -1.726724,4.80759 -0.331768,1.23957 -0.496044,2.17364 -0.942469,2.28222 -0.422423,0.10279 -1.096125,-0.68137 -1.36189,-2.29795 -0.271218,-1.64974 -0.03723,-3.80926 0.97636,-6.06073 0.0956,-0.21235 0.195279,-0.41914 0.298247,-0.62012 0,0 0,0 0,0 1.976375,-3.99272 4.816062,-5.93122 5.420961,-5.47944 z"
       id="path4967"
       inkscape:path-effect="#path-effect4969"
       inkscape:original-d="m 78.733439,172.95005 c -2.163353,2.76899 -6.573893,8.88676 -5.346765,14.45542"
       sodipodi:nodetypes="cc" />
    <path
       style="fill:#000000;stroke:none;stroke-width:0.174361px;stroke-linecap:butt;stroke-linejoin:miter;stroke-opacity:1"
       d="m 115.76027,134.45461 c 0.35861,-0.27873 1.42533,0.42041 2.76126,1.94033 1.3142,1.49519 2.94912,3.91194 3.8739,6.99009 0.006,0.0203 0.0121,0.0405 0.0182,0.0608 0.95992,3.26639 0.50497,6.25389 -0.36829,8.2547 -0.8718,1.99744 -1.99107,2.78282 -2.35025,2.57886 -0.41247,-0.23416 -0.0692,-1.41036 0.11758,-3.15634 0.19383,-1.81215 0.19344,-4.11539 -0.54889,-6.72662 -0.003,-0.0109 -0.006,-0.0218 -0.009,-0.0326 -0.71429,-2.51915 -1.91663,-4.97534 -2.66292,-6.65917 -0.78002,-1.75994 -1.1891,-2.97197 -0.83124,-3.25005 z"
       id="path5669"
       inkscape:path-effect="#path-effect5671"
       inkscape:original-d="m 115.76618,134.45015 c 4.11878,5.63527 8.08793,12.96874 3.92249,19.82552"
       sodipodi:nodetypes="cc" />
  </g>
  <g
     inkscape:groupmode="layer"
     id="layer2"
     inkscape:label="Layer 2" />
</svg>
